<?xml version="1.0" encoding="utf-8"?>
<!-- Generator: Adobe Illustrator 28.0.0, SVG Export Plug-In . SVG Version: 6.00 Build 0)  -->
<svg version="1.1" id="Calque_1" xmlns="http://www.w3.org/2000/svg" xmlns:xlink="http://www.w3.org/1999/xlink" x="0px" y="0px"
	 viewBox="0 0 1424.5 1207.5" style="enable-background:new 0 0 1424.5 1207.5;" xml:space="preserve">
<style type="text/css">
	.st0{fill:#E24F1B;}
	.st1{fill:#FFFFFF;}
</style>
<g>
	<path class="st0" d="M820.6,990.9c93.9,0,170.3-76.4,170.3-170.3V603.8c0-93.9-76.4-170.3-170.3-170.3H603.9
		c-93.9,0-170.3,76.4-170.3,170.3v216.8c0,93.9,76.4,170.3,170.3,170.3H820.6L820.6,990.9z M557.4,820.6V603.8
		c0-25.6,20.8-46.5,46.5-46.5h216.8c25.6,0,46.5,20.8,46.5,46.5v216.8c0,25.6-20.8,46.5-46.5,46.5H603.9
		C578.3,867,557.4,846.2,557.4,820.6z"/>
	<rect y="216.7" class="st1" width="123.9" height="123.9"/>
	<rect x="216.8" class="st1" width="123.9" height="123.9"/>
	<rect x="433.6" class="st1" width="123.9" height="123.9"/>
	<rect x="650.3" class="st1" width="123.9" height="123.9"/>
	<path class="st1" d="M1300.6,820.6c0,25.7-20.8,46.5-46.4,46.5c-16.1,0-31.7,2.2-46.4,6.4c-23,6.5-44,17.7-61.9,32.5
		c-8.4,6.9-16.1,14.6-23,23c-14.8,17.9-26.1,38.9-32.5,61.9c-4.2,14.8-6.4,30.3-6.4,46.4c0,25.7-20.8,46.4-46.4,46.4h-46.4H433.6
		h-46.5c-25.7,0-46.5-20.8-46.5-46.4c0-16.1-2.2-31.7-6.4-46.4c-6.5-23-17.7-44-32.5-61.9c-6.9-8.4-14.6-16.1-23-23
		c-17.9-14.8-39-26.1-61.9-32.5c-14.8-4.2-30.4-6.4-46.4-6.4c-25.7,0-46.4-20.8-46.4-46.5V650.3H0v170.3c0,16.1,2.2,31.7,6.4,46.5
		c6.5,23,17.7,44,32.5,61.9c21.7,26.3,51.2,46,84.9,55.5c14.8,4.2,30.4,6.4,46.4,6.4c25.7,0,46.4,20.8,46.4,46.4
		c0,16.1,2.2,31.7,6.4,46.4c9.5,33.7,29.2,63.2,55.5,84.9c17.9,14.8,39,26.1,61.9,32.5c14.8,4.2,30.4,6.4,46.5,6.4h46.5h557.4h46.4
		c16.1,0,31.7-2.2,46.4-6.4c23-6.5,44-17.7,61.9-32.5c26.3-21.7,46-51.2,55.5-84.9c4.2-14.8,6.4-30.3,6.4-46.4
		c0-25.7,20.8-46.4,46.4-46.4c16.1,0,31.7-2.2,46.4-6.4c33.7-9.5,63.2-29.2,84.9-55.5c14.8-17.9,26.1-38.9,32.5-61.9
		c4.2-14.8,6.4-30.3,6.4-46.5V650.3h-123.9L1300.6,820.6L1300.6,820.6z"/>
	<path class="st1" d="M1207.7,387c0-16.1-2.2-31.7-6.4-46.5c-9.5-33.7-29.2-63.2-55.5-84.9c-17.9-14.8-38.9-26-61.9-32.5
		c-14.8-4.2-30.3-6.4-46.4-6.4h-46.4H433.6h-46.5c-16.1,0-31.7,2.2-46.5,6.4c-23,6.5-44,17.7-61.9,32.5
		c-26.3,21.7-46,51.2-55.5,84.9c-4.2,14.8-6.4,30.3-6.4,46.5c0,25.7-20.8,46.5-46.4,46.5H0v123.9h170.3c16.1,0,31.7-2.2,46.4-6.4
		c23-6.5,44-17.7,61.9-32.5c26.3-21.7,46-51.2,55.5-84.9c4.2-14.8,6.4-30.3,6.4-46.5c0-25.7,20.8-46.5,46.5-46.5h46.5h557.4h46.4
		c25.7,0,46.4,20.8,46.4,46.5c0,16.1,2.2,31.7,6.4,46.5c9.5,33.7,29.2,63.2,55.5,84.9c17.9,14.8,38.9,26,61.9,32.5
		c14.8,4.2,30.3,6.4,46.4,6.4h170.3V433.5h-170.3C1228.5,433.5,1207.7,412.7,1207.7,387z"/>
	<rect x="1300.6" y="216.7" class="st1" width="123.9" height="123.9"/>
	<rect x="1083.9" class="st1" width="123.9" height="123.9"/>
	<rect x="867.1" class="st1" width="123.9" height="123.9"/>
</g>
</svg>
