<?xml version="1.0" encoding="utf-8"?>
<!-- Generator: Adobe Illustrator 28.0.0, SVG Export Plug-In . SVG Version: 6.00 Build 0)  -->
<svg version="1.1" id="Calque_1" xmlns="http://www.w3.org/2000/svg" xmlns:xlink="http://www.w3.org/1999/xlink" x="0px" y="0px"
	 viewBox="0 0 557.4 557.4" style="enable-background:new 0 0 557.4 557.4;" xml:space="preserve">
<style type="text/css">
	.st0{fill:#FFFFFF;}
</style>
<path class="st0" d="M427.5,96.5c-18.5,0-33.5,15-33.5,33.4c0,18.5,15,33.4,33.5,33.4c18.5,0,33.4-15,33.4-33.4
	C460.9,111.5,445.9,96.5,427.5,96.5z M278.7,371.6c-51.3,0-92.9-41.6-92.9-92.9c0-51.3,41.6-92.9,92.9-92.9s92.9,41.6,92.9,92.9
	C371.6,330,330,371.6,278.7,371.6z M278.7,135.6c-79,0-143.1,64.1-143.1,143.1s64.1,143.1,143.1,143.1s143.1-64.1,143.1-143.1
	C421.8,199.7,357.7,135.6,278.7,135.6z M278.7,0C203,0,193.5,0.3,163.8,1.7C62.6,6.3,6.3,62.5,1.7,163.8C0.3,193.5,0,203,0,278.7
	s0.3,85.2,1.7,114.9c4.6,101.2,60.8,157.5,162.1,162.1c29.8,1.3,39.2,1.7,114.9,1.7s85.2-0.3,114.9-1.7
	c101.1-4.6,157.5-60.8,162.1-162.1c1.4-29.7,1.7-39.2,1.7-114.9s-0.3-85.2-1.7-114.9C551.2,62.7,494.9,6.3,393.6,1.7
	C363.9,0.3,354.4,0,278.7,0z M278.7,50.2c74.4,0,83.2,0.3,112.6,1.6c75.5,3.4,110.8,39.3,114.2,114.2c1.3,29.4,1.6,38.2,1.6,112.6
	c0,74.4-0.3,83.2-1.6,112.6c-3.5,74.9-38.6,110.8-114.2,114.2c-29.4,1.3-38.2,1.6-112.6,1.6c-74.4,0-83.2-0.3-112.6-1.6
	c-75.7-3.5-110.8-39.5-114.2-114.3c-1.3-29.4-1.6-38.2-1.6-112.6c0-74.4,0.3-83.2,1.6-112.6C55.3,91.1,90.5,55.3,166.1,51.8
	C195.5,50.5,204.3,50.2,278.7,50.2z"/>
</svg>
