<?xml version="1.0" encoding="utf-8"?>
<!-- Generator: Adobe Illustrator 28.0.0, SVG Export Plug-In . SVG Version: 6.00 Build 0)  -->
<svg version="1.1" id="Calque_1" xmlns="http://www.w3.org/2000/svg" xmlns:xlink="http://www.w3.org/1999/xlink" x="0px" y="0px"
	 viewBox="0 0 4521.1 557.4" style="enable-background:new 0 0 4521.1 557.4;" xml:space="preserve">
<style type="text/css">
	.st0{fill:#E24F1B;}
</style>
<g>
	<g>
		<g>
			<rect x="3963.7" width="123.9" height="123.9"/>
		</g>
		<g>
			<rect x="3963.7" y="216.8" width="123.9" height="340.6"/>
		</g>
	</g>
	<g>
		<path d="M4430.8,267.3l-12.4,11.4l12.4,11.4c57.4,52.7,90.3,127.5,90.3,205.4v61.9h-123.9v-61.9c0-85.4-69.5-154.8-154.8-154.8
			h-61.9V216.8h61.9c85.4,0,154.8-69.5,154.8-154.8V0h123.9v61.9C4521.1,139.8,4488.2,214.6,4430.8,267.3z"/>
	</g>
	<g>
		<path d="M1084.4,321l-9.4-11.7l11.4-9.8c30.2-25.9,50.5-61.7,57-100.8c1.6-9.4,2.4-19,2.4-28.4s-0.8-19-2.4-28.4
			c-6.6-39.2-26.9-75.1-57.4-101.2C1055.2,14.5,1016,0,975.4,0H588.4v557.4h123.9V340.6h154.8c85.4,0,154.8,69.5,154.8,154.8v61.9
			h123.9v-61.9c0-46.1-11.5-91.7-33.2-132C1104.6,348.7,1095.1,334.3,1084.4,321z M975.4,216.8H712.2v-92.9h263.2
			c25.6,0,46.4,20.9,46.4,46.4S1001.1,216.8,975.4,216.8z"/>
	</g>
	<path d="M3218.2,141.9c-12-71.5-68.1-127.5-139.5-139.5c-9.4-1.6-19-2.4-28.4-2.4h-216.8c-9.5,0-19,0.8-28.4,2.4
		c-71.5,12-127.5,68.1-139.5,139.5c-1.6,9.4-2.4,19-2.4,28.4v387.1H2787V340.6h309.7v216.8h123.9V170.3
		C3220.5,160.9,3219.7,151.3,3218.2,141.9z M3096.7,216.8H2787v-46.4c0-25.6,20.9-46.4,46.4-46.4h216.8c25.6,0,46.4,20.9,46.4,46.4
		V216.8z"/>
	<g>
		<path class="st0" d="M1625.7,0H1409c-93.9,0-170.3,76.4-170.3,170.3v216.8c0,93.9,76.4,170.3,170.3,170.3h216.8
			c93.9,0,170.3-76.4,170.3-170.3V170.3C1796.1,76.4,1719.7,0,1625.7,0z M1672.2,387.1c0,25.6-20.8,46.4-46.4,46.4H1409
			c-25.6,0-46.5-20.9-46.5-46.4V170.3c0-25.6,20.9-46.4,46.5-46.4h216.8c25.6,0,46.4,20.9,46.4,46.4V387.1z"/>
	</g>
	<g>
		<path d="M123.9,170.3v216.8c0,25.6,20.9,46.4,46.4,46.4h325.1v123.9H170.3C76.4,557.4,0,481,0,387.1V170.3C0,76.4,76.4,0,170.3,0
			h325.1v123.9H170.3C144.7,123.9,123.9,144.7,123.9,170.3z"/>
	</g>
	<g>
		<path d="M2570.2,170.3v387.1h-123.9V170.3c0-25.6-20.8-46.4-46.4-46.4h-108.4v433.5h-123.9V123.9h-108.4
			c-25.6,0-46.4,20.9-46.4,46.4v387.1H1889V170.3c0-9.5,0.8-19,2.4-28.4c12-71.5,68.1-127.5,139.5-139.5c9.4-1.6,19-2.4,28.4-2.4
			h340.6c9.5,0,19,0.8,28.4,2.4c71.5,12,127.5,68.1,139.5,139.5C2569.4,151.3,2570.2,160.9,2570.2,170.3z"/>
	</g>
	<g>
		<polygon points="3870.8,0 3870.8,123.9 3654.1,123.9 3654.1,557.4 3530.2,557.4 3530.2,123.9 3313.4,123.9 3313.4,0 		"/>
	</g>
</g>
</svg>
