<?xml version="1.0" encoding="utf-8"?>
<!-- Generator: Adobe Illustrator 28.0.0, SVG Export Plug-In . SVG Version: 6.00 Build 0)  -->
<svg version="1.1" id="Calque_1" xmlns="http://www.w3.org/2000/svg" xmlns:xlink="http://www.w3.org/1999/xlink" x="0px" y="0px"
	 viewBox="0 0 557.4 557.4" style="enable-background:new 0 0 557.4 557.4;" xml:space="preserve">
<style type="text/css">
	.st0{fill:#FFFFFF;}
</style>
<path class="st0" d="M494.3,334.6h-51.9c2.3-18.5,3.4-37.2,3.4-55.9c0-18.7-1.1-37.4-3.4-55.9h51.9C504,259.4,504,298,494.3,334.6z
	 M405.2,462.3c12-22.8,21.4-46.9,27.9-71.8h39.1C455.5,419.1,432.6,443.7,405.2,462.3z M385.9,334.6h-79.9V222.8h79.9
	C391.1,259.9,391.1,297.5,385.9,334.6z M306.1,493.9V390.5h67.9C364.5,432,340.4,468.7,306.1,493.9z M306.1,63.5
	c34.3,25.2,58.4,61.9,67.9,103.4h-67.9V63.5z M471.4,166.9h-39.1c-6.6-24.9-15.9-49-27.9-71.8C431.8,113.7,454.6,138.3,471.4,166.9z
	 M250.2,166.9h-67.9c9.5-41.5,33.6-78.2,67.9-103.4V166.9z M250.2,334.6h-79.9c-5.2-37.1-5.2-74.7,0-111.8h79.9V334.6z M250.2,493.9
	c-34.3-25.2-58.4-61.9-67.9-103.4h67.9V493.9z M124,166.9H84.9c16.5-28.5,39.1-53.1,66.2-71.8C139.4,117.9,130.3,142,124,166.9z
	 M84.9,390.5H124c6.6,24.9,15.9,49,27.9,71.8C124.5,443.7,101.6,419.1,84.9,390.5z M62,334.6c-9.7-36.6-9.7-75.2,0-111.8h51.9
	c-4.5,37.1-4.5,74.7,0,111.8H62z M540.9,184.8c0,0,0,0,0-1.4c-19.7-53.8-55.4-100.2-102.3-133S335.9,0,278.7,0
	c-57.2,0-113,17.6-159.9,50.4s-82.6,79.2-102.3,133c0,0,0,0,0,1.4c-22,60.7-22,127.2,0,187.8c0,0,0,0,0,1.4
	c19.7,53.8,55.4,100.2,102.3,133s102.7,50.4,159.9,50.4c57.2,0,113-17.6,159.9-50.4s82.6-79.2,102.3-133c0,0,0,0,0-1.4
	C562.9,311.9,562.9,245.5,540.9,184.8z"/>
</svg>
